<?xml version="1.0" encoding="UTF-8" standalone="no"?>
<!-- Created with Inkscape (http://www.inkscape.org/) -->

<svg
   xmlns:dc="http://purl.org/dc/elements/1.1/"
   xmlns:cc="http://creativecommons.org/ns#"
   xmlns:rdf="http://www.w3.org/1999/02/22-rdf-syntax-ns#"
   xmlns:svg="http://www.w3.org/2000/svg"
   xmlns="http://www.w3.org/2000/svg"
   xmlns:sodipodi="http://sodipodi.sourceforge.net/DTD/sodipodi-0.dtd"
   xmlns:inkscape="http://www.inkscape.org/namespaces/inkscape"
   id="swans"
   version="1.1"
   inkscape:version="0.48.4 r9939"
   height="100%"
   viewBox="0 0 358.21558 338.85278"
   width="100%"
   sodipodi:docname="swans cropped.svg">
  <defs
     id="defs4" />
  <sodipodi:namedview
     id="base"
     pagecolor="#ffffff"
     bordercolor="#666666"
     borderopacity="1.0"
     inkscape:pageopacity="0.0"
     inkscape:pageshadow="2"
     inkscape:zoom="5.6"
     inkscape:cx="139.95072"
     inkscape:cy="195.85866"
     inkscape:document-units="px"
     inkscape:current-layer="layer1"
     showgrid="false"
     fit-margin-top="0"
     fit-margin-left="0"
     fit-margin-right="0"
     fit-margin-bottom="0"
     inkscape:window-width="1855"
     inkscape:window-height="1056"
     inkscape:window-x="65"
     inkscape:window-y="24"
     inkscape:window-maximized="1" />
  <metadata
     id="metadata7">
    <rdf:RDF>
      <cc:Work
         rdf:about="">
        <dc:format>image/svg+xml</dc:format>
        <dc:type
           rdf:resource="http://purl.org/dc/dcmitype/StillImage" />
        <dc:title></dc:title>
      </cc:Work>
    </rdf:RDF>
  </metadata>
  <g
     inkscape:label="Layer 1"
     inkscape:groupmode="layer"
     id="layer1"
     transform="translate(-56.476425,-15.77313)">
    <path
       id="path3130"
       style="fill:#333333;fill-opacity:1"
       d="m 287.4451,167.14725 c -0.39933,-2.0179 -3.99859,-7.56441 -8.42064,-10.2663 -2.02075,-1.23468 -3.27721,-2.24718 -2.79212,-2.25 1.89096,-0.011 7.69359,4.29227 9.82605,7.28703 l 2.24381,3.15114 c 1.01813,10.4902 0.28535,7.85111 -0.8571,2.07813 z m -45.83313,41.77137 c 1.24391,-0.23919 3.04391,-0.23011 4,0.0202 0.95609,0.25029 -0.0617,0.446 -2.26166,0.4349 -2.2,-0.0111 -2.98225,-0.21589 -1.73834,-0.45508 z m -14.76166,-2.89048 c -2.475,-1.402 -5.48802,-4.08539 -6.6956,-5.96308 l -2.1956,-3.414 2.43702,1.5968 c 1.34035,0.87823 2.22648,1.93742 1.96918,2.35376 -0.83126,1.34499 3.34435,4.28304 8.73267,6.14449 3.50519,1.21091 4.42073,1.81725 2.75233,1.8228 -1.375,0.005 -4.525,-1.13877 -7,-2.54077 z m -6.05491,-9.18377 c -3.6492,-1.63157 -9.94509,-9.52274 -9.94509,-12.46502 0,-0.88375 -0.7875,-1.81262 -1.75,-2.06414 -0.9625,-0.25153 -0.2875,-0.50953 1.5,-0.57333 1.7875,-0.0638 3.25,0.36056 3.25,0.94302 0,0.58246 -0.45,0.7809 -1,0.44098 -1.8829,-1.1637 -1.00217,3.22748 1.22651,6.11514 3.01693,3.90898 4.58589,5.16397 9.27349,7.41775 4.78267,2.29949 2.53779,2.46256 -2.55491,0.1856 z m 35.05491,-1.81199 c 0,-0.50979 -1.0125,-2.04941 -2.25,-3.42138 -9.51517,-10.54914 -12.3571,-14.18862 -15.93241,-20.40371 -2.24051,-3.89475 -5.86377,-8.94702 -8.05168,-11.22727 -2.18791,-2.28027 -3.9303,-4.41777 -3.87197,-4.75001 0.0583,-0.33225 0.10571,-0.94159 0.10528,-1.35409 -9.9e-4,-1.00967 -5.52704,-6.92821 -10.75209,-11.5159 -2.33909,-2.05375 -3.9715,-3.7341 -3.62757,-3.7341 0.34393,0 0.0334,-0.7875 -0.69,-1.75 -0.72344,-0.9625 1.72524,1.175 5.44151,4.75 3.71625,3.575 9.05529,9.65 11.86451,13.5 7.56986,10.37441 13.5222,16.22282 20.51443,20.15625 3.4375,1.93374 6.25,3.74512 6.25,4.02528 0,0.69305 -11.06606,-5.53344 -13.25613,-7.45876 -0.96587,-0.84911 -1.97329,-1.32667 -2.2387,-1.06126 -0.90499,0.90499 5.73852,10.29958 11.01436,15.57542 2.89469,2.8947 5.03189,5.26308 4.74933,5.26308 -0.28256,0 0.0555,0.68587 0.7512,1.52417 0.69572,0.83829 0.97582,1.81329 0.62243,2.16666 -0.35336,0.35333 -0.64249,0.22536 -0.64249,-0.28443 z m -37.24821,-8.24793 c -1.51152,-0.91221 -2.74902,-1.99607 -2.75,-2.40857 -0.003,-1.45622 1.67721,-0.72059 3.99821,1.75 2.69487,2.86856 2.54484,2.94772 -1.24821,0.65857 z m 3.10899,-2.21792 -2.36078,-2.05935 2.75,1.67436 c 1.5125,0.9209 2.75,1.84761 2.75,2.05935 0,0.78084 -0.83549,0.33522 -3.13922,-1.67436 z m 37.61364,-2.03578 c -1.08593,-1.23674 -1.41192,-1.91971 -0.72442,-1.51771 2.76287,1.61553 0.95009,-1.71809 -4.41752,-8.12366 -3.11714,-3.7199 -4.46714,-5.67252 -3,-4.33915 3.42015,3.10833 3.41756,1.77305 -0.006,-2.82992 l -2.67301,-3.59439 2.7544,2.5 2.75441,2.5 -0.72207,-3 c -0.39713,-1.65 -0.36802,-2.67176 0.0647,-2.27057 0.43272,0.40118 1.12831,2.89008 1.54577,5.53089 0.41745,2.64081 2.1996,7.1189 3.96033,9.95132 3.45312,5.55491 3.75509,8.94258 0.4629,5.19319 z m 13.52558,1.71761 c 0,-0.20765 0.7875,-0.99515 1.75,-1.75 1.58606,-1.24387 1.62143,-1.2085 0.37756,0.37756 -1.30637,1.66575 -2.12756,2.19548 -2.12756,1.37244 z m -57.68558,-3.37244 c -0.34254,-0.9625 -0.85577,-2.2 -1.14051,-2.75 -0.28473,-0.55 0.44904,-0.15236 1.63061,0.88365 1.18158,1.036 1.90737,2.2735 1.61288,2.75 -0.80789,1.3072 -1.4139,1.05256 -2.10298,-0.88365 z m -14.50192,0.0669 c 0.72187,-0.28887 1.58437,-0.25335 1.91667,0.0789 0.33229,0.33229 -0.25834,0.56864 -1.3125,0.52522 -1.16495,-0.048 -1.4019,-0.28494 -0.60417,-0.60416 z m 19.05994,-3.06689 c -1.24387,-1.58606 -1.2085,-1.62143 0.37756,-0.37756 0.9625,0.75485 1.75,1.54235 1.75,1.75 0,0.82304 -0.82119,0.29331 -2.12756,-1.37244 z m -34.92892,-1.25 c -0.78463,-1.33333 -0.89312,-1.33333 -0.9765,0 -0.0518,0.82833 -0.52281,0.42749 -1.05189,-0.89518 -1.24143,-3.10351 -0.47199,-3.80454 1.7438,-1.58875 0.96479,0.9648 3.12372,2.34569 4.79762,3.06865 l 3.04345,1.31448 -3.33689,-0.1996 c -1.83529,-0.10978 -3.73411,-0.8746 -4.21959,-1.6996 z m 36.49357,-1.25 -2.93709,-3.25 3.25,2.93709 c 3.02946,2.73778 3.70965,3.56291 2.93709,3.56291 -0.1721,0 -1.6346,-1.4625 -3.25,-3.25 z m 42.56291,1.69098 c 0,-0.85746 0.38319,-1.32219 0.85152,-1.03274 1.14915,0.71021 3.32421,-6.78673 2.55248,-8.79783 -0.33746,-0.87941 -1.08595,-1.30698 -1.66329,-0.95016 -0.61299,0.37885 -0.75286,0.16843 -0.3362,-0.50574 1.04003,-1.68281 2.59549,-1.41165 2.59549,0.45248 0,1.01917 0.5499,1.39597 1.50332,1.03011 1.31061,-0.50293 1.3249,-0.2923 0.11146,1.64301 -0.76554,1.22094 -1.92693,3.90739 -2.58088,5.96989 -1.19514,3.76935 -3.0339,5.09725 -3.0339,2.19098 z m -63,-1.83404 c 0,-0.21616 0.69837,-0.661 1.55194,-0.98855 0.88992,-0.34149 1.29132,-0.17385 0.94098,0.39301 -0.58726,0.95021 -2.49292,1.40545 -2.49292,0.59554 z m 14.46984,-3.65476 c -1.40538,-2.22627 -3.20844,-4.29843 -4.0068,-4.60479 -0.79835,-0.30635 -1.18594,-0.98678 -0.8613,-1.51207 0.32465,-0.52528 1.18579,-0.14062 1.91365,0.85479 0.72786,0.99541 1.92216,1.80984 2.654,1.80984 0.73183,0 1.38128,1.00439 1.44321,2.23198 0.0619,1.22759 0.67953,2.91509 1.37244,3.75 0.69292,0.83491 0.98539,1.51802 0.64995,1.51802 -0.33545,0 -1.75976,-1.8215 -3.16515,-4.04777 z m -29.5974,0.29777 c -1.24387,-1.58606 -1.2085,-1.62143 0.37756,-0.37756 0.9625,0.75485 1.75,1.54235 1.75,1.75 0,0.82304 -0.82119,0.29331 -2.12756,-1.37244 z m 76.28545,-1.25001 c 0,-1.375 0.22698,-1.9375 0.50439,-1.25 0.27741,0.6875 0.27741,1.8125 0,2.5 -0.27741,0.6875 -0.50439,0.125 -0.50439,-1.25 z m -83.15789,-0.78911 c 0,-1.18064 0.28349,-1.2205 1.5,-0.21089 0.825,0.68469 1.5,1.33979 1.5,1.45578 0,0.11599 -0.675,0.21089 -1.5,0.21089 -0.825,0 -1.5,-0.6551 -1.5,-1.45578 z m 28.15789,-3.21089 c 0,-1.375 0.22698,-1.9375 0.50439,-1.25 0.27741,0.6875 0.27741,1.8125 0,2.5 -0.27741,0.6875 -0.50439,0.125 -0.50439,-1.25 z m -7.15789,-2.60699 c 0,-1.13825 -0.51045,-1.39684 -1.75,-0.88655 -0.9625,0.39625 -2.65,0.90709 -3.75,1.1352 -1.26521,0.26238 -1.08152,0.0231 0.5,-0.65141 1.375,-0.58639 2.97602,-1.69182 3.55782,-2.45652 0.84724,-1.11357 1.27786,-0.8074 2.16314,1.53796 0.61382,1.62619 0.69927,2.92831 0.19218,2.92831 -0.50223,0 -0.91314,-0.72314 -0.91314,-1.60699 z m 60.15789,-0.39301 c 0,-1.375 0.22698,-1.9375 0.50439,-1.25 0.27741,0.6875 0.27741,1.8125 0,2.5 -0.27741,0.6875 -0.50439,0.125 -0.50439,-1.25 z m -47.04189,-1.25 c -0.11483,-2.72224 1.19079,-3.68065 2.384,-1.75 0.33992,0.55 0.17447,1 -0.36766,1 -0.54213,0 -1.19149,0.7875 -1.44301,1.75 -0.28137,1.07666 -0.50196,0.6919 -0.57333,-1 z m -7.62608,0.23369 c -0.34546,-0.55897 -1.11655,-0.71444 -1.71352,-0.34549 -0.64783,0.40038 -0.79776,0.20538 -0.37188,-0.48369 0.98543,-1.59446 2.27029,-1.44435 2.95712,0.34549 0.65275,1.70106 0.0778,2.02007 -0.87172,0.48369 z m 48.61861,-2.05077 c -1.21524,-1.64369 -2.5655,-2.76854 -3.00056,-2.49965 -0.43509,0.26889 -2.32486,-1.18015 -4.19951,-3.2201 l -3.40845,-3.70899 3.40427,2.99791 c 2.76148,2.43184 3.27393,2.62026 2.71402,0.9979 -0.37963,-1.1 1.10676,0.025 3.30309,2.5 3.19374,3.59896 4.00112,4.09954 4.03224,2.50001 0.0214,-1.1 -0.85942,-3.47339 -1.95736,-5.27418 -1.09794,-1.80079 -1.98222,-3.60079 -1.96506,-4 0.0172,-0.39921 1.13986,1.07417 2.49489,3.27417 4.06344,6.5974 2.83283,12.1819 -1.41757,6.43293 z m -63.64965,1.0006 c -0.36253,-0.58659 -0.44468,-1.281 -0.18255,-1.54313 0.26212,-0.26213 0.74306,0.21781 1.06876,1.06653 0.67617,1.76211 0.0999,2.07206 -0.88621,0.4766 z m 25.41356,-2.68352 c -1.24387,-1.58607 -1.2085,-1.62144 0.37757,-0.37757 0.96249,0.75486 1.75,1.54236 1.75,1.75001 0,0.82304 -0.82119,0.29331 -2.12757,-1.37244 z m 27,-1.00001 c -1.24387,-1.58606 -1.2085,-1.62143 0.37757,-0.37756 0.96249,0.75485 1.75,1.54236 1.75,1.75001 0,0.82304 -0.82119,0.29331 -2.12757,-1.37245 z m -42.79348,-0.8333 c 0.048,-1.16495 0.28494,-1.4019 0.60416,-0.60417 0.28886,0.72187 0.25335,1.58437 -0.0789,1.91667 -0.3323,0.3323 -0.56864,-0.25834 -0.52522,-1.3125 z m 10.56919,-4.27785 c -1.56852,-3.21336 -2.63322,-6.69665 -2.366,-7.74065 0.38819,-1.51662 0.50917,-1.4133 0.60186,0.51397 0.0638,1.32668 1.27178,4.38434 2.6844,6.79479 1.41262,2.41046 2.42512,4.80829 2.25,5.32851 -0.17512,0.52022 -1.60174,-1.68326 -3.17026,-4.89662 z m 73.27866,2.53124 c -1.96154,-1.74354 -4.43501,-3.74933 -5.49662,-4.45733 -1.0616,-0.708 -1.29121,-0.97168 -0.51024,-0.58596 1.06817,0.52759 1.24331,0.24105 0.70695,-1.15666 -0.69373,-1.80785 -0.65784,-1.80809 1.33007,-0.009 1.12366,1.01691 2.06189,1.44168 2.08495,0.94394 0.023,-0.49775 0.93851,0.67001 2.03435,2.59501 1.56898,2.75613 1.86872,2.96866 1.41034,1 -0.49331,-2.11865 -0.41403,-2.23185 0.51977,-0.74208 0.60602,0.96686 0.84972,2.16592 0.54152,2.66459 -0.3082,0.49867 0.005,1.1085 0.69587,1.35518 0.69093,0.24667 1.02972,0.69913 0.75284,1.00546 -0.27686,0.30633 -2.10827,-0.86956 -4.06981,-2.61309 z m -80.40749,0.39075 c -0.36482,-1.14943 -1.0809,-1.83179 -1.59131,-1.51634 -0.5104,0.31544 -0.928,0.12353 -0.928,-0.42647 0,-0.55 0.3842,-1.23744 0.85377,-1.52766 0.89481,-0.55302 3.54955,4.33963 2.77498,5.11422 -0.24538,0.24537 -0.74462,-0.49432 -1.10944,-1.64375 z m 41.405,-5.73841 -2.42431,-2.67757 3.25,2.24566 c 3.27976,2.26623 3.9372,3.10948 2.42431,3.10948 -0.45412,0 -1.91662,-1.20491 -3.25,-2.67757 z m 4.04297,-1.6575 c -1.393,-1.19071 -3.643,-2.97845 -5,-3.97275 -1.52057,-1.11415 -1.02838,-0.98692 1.28272,0.33156 5.2504,2.99536 4.68069,0.77851 -0.8938,-3.47793 -5.59398,-4.27132 -5.11373,-4.65356 0.84366,-0.67151 8.96213,5.99049 12.19299,4.25984 5.08585,-2.7243 -2.04285,-2.0075 -3.61602,-3.993 -3.49593,-4.41222 0.1201,-0.41922 -1.17054,-1.60687 -2.8681,-2.63921 -1.97902,-1.20351 -2.60839,-2.04539 -1.75407,-2.34635 2.25324,-0.79376 -10.72116,-6.54295 -13.83942,-6.1325 l -2.8282,0.37228 2.8826,-0.94498 c 2.34968,-0.77028 3.86528,-0.446 8.19792,1.754 9.37203,4.75887 22.82077,23.19898 16.91949,23.19898 -0.825,0 -1.5,-0.45 -1.5,-1 0,-0.55 -0.43886,-1 -0.97526,-1 -0.6266,0 -0.61658,0.94333 0.028,2.63869 1.31489,3.45842 0.96267,3.63174 -2.08546,1.02624 z m 34.59701,0.6282 c -0.54268,-1.4252 -0.42782,-1.54006 0.5598,-0.5598 0.68342,0.67834 0.99067,1.48524 0.68278,1.79313 -0.30789,0.30789 -0.86705,-0.24711 -1.24258,-1.23333 z m -12.56429,-0.29313 c -2.00973,-0.64363 -2.10779,-0.8064 -0.5,-0.83003 1.1,-0.0162 2.9,0.35734 4,0.83003 2.54822,1.09501 -0.0808,1.09501 -3.5,0 z m 8.40499,-2.25 -1.90499,-2.25 2.25,1.90499 c 2.11444,1.79022 2.70524,2.59501 1.90499,2.59501 -0.18976,0 -1.20226,-1.0125 -2.25,-2.25 z m -14.655,0.58778 c 0.6875,-0.27741 1.8125,-0.27741 2.5,0 0.6875,0.27741 0.125,0.50439 -1.25,0.50439 -1.375,0 -1.9375,-0.22698 -1.25,-0.50439 z m -7.9375,-1.0208 c 0.72187,-0.28887 1.58437,-0.25335 1.91667,0.0789 0.33229,0.33229 -0.25834,0.56864 -1.3125,0.52522 -1.16495,-0.048 -1.4019,-0.28494 -0.60417,-0.60416 z m -16.8125,-14.31692 c -0.825,-0.53316 -1.05,-0.96937 -0.5,-0.96937 0.55,0 1.675,0.43621 2.5,0.96937 0.825,0.53316 1.05,0.96937 0.5,0.96937 -0.55,0 -1.675,-0.43621 -2.5,-0.96937 z m 3.98003,87.0038 c 11.60838,-2.20149 24.76729,-9.72318 33.48665,-19.14114 7.81566,-8.44184 10.77987,-15.0109 10.65096,-23.60381 -0.17059,-11.37131 -6.15119,-19.41637 -15.57015,-20.94486 -6.65392,-1.07978 -12.49398,4.8951 -10.37734,10.61691 l 0.89541,2.42053 1.55732,-2.22338 c 1.29886,-1.85438 1.81207,-2.01196 3.09224,-0.94951 0.84421,0.70063 2.76888,1.14444 4.27705,0.98624 5.22922,-0.54851 8.13192,5.14002 6.09388,11.9424 -2.26151,7.54823 -11.20439,14.81351 -18.30466,14.87087 -2.00097,0.0162 -2.56667,0.41792 -2.14301,1.52196 0.36449,0.94984 -0.0138,1.5 -1.03138,1.5 -0.88385,0 -1.60699,-0.4035 -1.60699,-0.89666 0,-0.49316 -3.18826,-4.40679 -7.08503,-8.69695 -3.89676,-4.29016 -8.37599,-10.35769 -9.95384,-13.4834 -3.98545,-7.89512 -11.08534,-15.03679 -20.21113,-20.33005 -4.2625,-2.47238 -7.75,-4.13194 -7.75,-3.6879 0,1.45224 6.87671,9.8531 10.22631,12.49285 1.80053,1.41896 2.77188,2.58492 2.15855,2.59102 -0.61334,0.006 -2.30084,-0.92157 -3.75,-2.06149 -4.56005,-3.58694 -2.86557,-0.58693 2.86514,5.07258 3.02499,2.98742 5.5,5.88297 5.5,6.43454 0,0.55157 -2.7,-1.66897 -6,-4.93454 -9.3175,-9.22027 -7.64112,-3.13317 1.85895,6.75 4.75044,4.94202 4.51069,6.28068 -0.47409,2.64717 -2.572,-1.87478 -2.53069,-1.76633 0.38092,1 1.79617,1.70656 2.77909,3.10283 2.18426,3.10283 -2.40389,0 -4.90142,-2.21974 -8.35967,-7.42981 -4.18923,-6.31134 -6.16404,-8.03259 -5.10028,-4.44542 1.29781,4.37643 5.3673,9.64855 10.03513,13.00072 4.83193,3.47004 4.6678,5.24298 -0.21425,2.3142 -2.50373,-1.50201 -2.42836,-1.31761 0.68953,1.68699 1.92527,1.85533 4.62527,4.13722 6,5.07087 1.37472,0.93365 2.02839,1.72115 1.4526,1.75 -0.57578,0.0289 -4.13002,-1.97255 -7.89827,-4.44755 -8.93471,-5.86834 -10.46088,-5.91081 -6.68634,-0.1861 2.33542,3.54205 8.15362,7.54052 12.12926,8.33565 1.67412,0.33483 3.28605,1.00065 3.58207,1.47961 0.75522,1.22198 -4.26206,1.08786 -6.89557,-0.18433 -2.10998,-1.01928 -2.11825,-1.00228 -0.24313,0.5 1.06762,0.85535 2.53012,1.55517 3.25,1.55517 0.71988,0 1.30887,0.48032 1.30887,1.06739 0,0.62371 -0.93525,0.81002 -2.25,0.44822 -2.21778,-0.6103 -2.22136,-0.59632 -0.25,0.97665 2.55805,2.0411 11.58418,4.67384 17.24556,5.03019 6.04613,0.38056 6.20366,1.05363 0.55842,2.38591 -5.60298,1.3223 -8.67397,0.63416 -16.10184,-3.60808 -4.07805,-2.32907 -10.20213,-8.77854 -10.20213,-10.7442 0,-0.19531 -1.575,-2.69554 -3.5,-5.55608 -1.92501,-2.86054 -3.5,-5.83076 -3.5,-6.60049 0,-0.9403 -1.23048,-1.41843 -3.75,-1.45716 -2.0625,-0.0317 -6.87608,-0.87215 -10.69681,-1.86766 l -6.94681,-1.81002 2.75257,2.36766 c 1.79378,1.54295 2.23122,2.36767 1.25583,2.36767 -0.82322,0 -1.77337,-0.44758 -2.11147,-0.99462 -0.33809,-0.54704 -1.60214,-1.50812 -2.80901,-2.13572 -2.12343,-1.10424 -2.11759,-1.05766 0.18045,1.44187 l 2.37475,2.58297 -2.37475,-0.12417 c -1.30612,-0.0683 -2.97014,-0.57695 -3.69785,-1.13035 -1.95221,-1.48462 -4.80674,-7.59073 -5.60618,-11.99216 -0.38484,-2.1187 -0.90294,-3.64893 -1.15138,-3.4005 -0.68365,0.68365 2.06819,12.7437 3.87706,16.99143 0.87568,2.05631 3.62775,6.88549 6.11573,10.73151 6.58899,10.18554 19.11382,19.06713 31.63393,22.43223 6.43652,1.72998 17.56705,1.9984 24.93396,0.6013 z m 24.9298,-31.09524 c 1.58067,-1.16864 3.87192,-3.47463 5.09167,-5.12443 4.12414,-5.57821 3.55486,-14.78412 -0.91423,-14.78412 -2.43575,0 -3.89063,1.88737 -5.36916,6.96527 -0.66995,2.30091 -1.66204,4.26251 -2.20463,4.3591 -1.41848,0.25253 -3.1658,-3.89847 -4.60824,-10.9475 -0.99368,-4.856 -0.99855,-6.73737 -0.0235,-9.09129 1.34833,-3.25522 6.57276,-6.28559 10.83647,-6.28559 3.79101,0 10.80912,3.64953 13.75846,7.15464 1.38784,1.64935 2.52334,2.45508 2.52334,1.79052 0,-0.66457 -1.9125,-3.10534 -4.25,-5.42393 -4.64472,-4.60714 -9.88044,-6.60363 -22.46017,-8.56457 -8.91686,-1.38997 -10.15894,-0.78866 -6.98864,3.3833 3.70528,4.87596 5.35286,10.16704 3.76259,12.08321 -0.70972,0.85515 -1.62571,1.34758 -2.03555,1.09429 -1.9044,-1.17698 0.13236,7.06627 2.7847,11.27031 3.8799,6.14979 4.81519,9.21224 2.81347,9.21224 -0.8296,0 -1.76844,-0.42082 -2.08632,-0.93515 -0.31787,-0.51433 -2.93193,-2.23607 -5.80902,-3.82609 -2.87708,-1.59002 -6.96827,-3.94299 -9.09152,-5.22881 l -3.86046,-2.33785 1.50766,2.91395 c 2.00071,3.8669 10.69256,13.41785 13.21326,14.51926 3.06854,1.34078 10.20667,0.17143 13.40982,-2.19676 z m -54.64563,-6.83204 c 0.4203,-0.0421 -0.35742,-1.77137 -1.72827,-3.84287 -1.37086,-2.0715 -2.79631,-5.28561 -3.16769,-7.14247 l -0.67522,-3.3761 -1.0965,3.35784 c -1.31454,4.02552 -6.64787,7.90166 -10.99439,7.99048 -2.90654,0.0594 -2.95713,0.12156 -0.80249,0.98613 2.63545,1.0575 13.95907,2.69299 16.20037,2.33984 0.825,-0.12998 1.84388,-0.27077 2.26419,-0.31285 z m 41.33664,-5.53321 c -1.47294,-1.93112 -4.46069,-4.94368 -6.63945,-6.69458 -5.0124,-4.02807 -5.13696,-5.69578 -0.21138,-2.83013 2.96896,1.72731 2.29206,0.81032 -3.25,-4.40275 -3.85,-3.62146 -6.5185,-6.59152 -5.93,-6.60016 1.11437,-0.0163 8.55309,5.94556 11.80258,9.45941 1.86657,2.01842 1.87032,2.0169 1.1711,-0.47509 -0.38581,-1.375 -3.38209,-5.14639 -6.6584,-8.38086 -3.2763,-3.23446 -5.71856,-6.1192 -5.42723,-6.41053 0.29133,-0.29133 1.35538,0.21755 2.36456,1.13084 1.00918,0.9133 2.19761,1.66054 2.64098,1.66054 0.44336,0 -0.40327,-0.9513 -1.88139,-2.114 -1.47814,-1.16271 -2.4625,-2.33904 -2.18746,-2.61407 1.06052,-1.06053 7.35584,3.85286 10.44129,8.14927 4.08566,5.68921 5.38486,6.51092 3.99624,2.52753 -1.25938,-3.61266 -7.47714,-9.904 -12.41774,-12.56469 -1.87799,-1.01137 -3.41453,-2.18652 -3.41453,-2.61144 0,-1.30322 2.42898,-0.86086 4.94335,0.90028 1.31361,0.92008 2.07759,1.17002 1.69775,0.55543 -0.37984,-0.6146 -2.929,-2.56787 -5.66481,-4.34061 -8.8378,-5.7267 -3.27294,-4.30369 6.83283,1.74725 2.37003,1.41907 4.54397,2.34528 4.83103,2.05824 2.09004,-2.09005 -8.09767,-10.12559 -14.31671,-11.29229 -4.60235,-0.8634 -4.20767,-2.62904 0.42656,-1.90833 l 3.75,0.5832 -3,-1.45666 c -2.95975,-1.43713 -2.96646,-1.45817 -0.5,-1.5683 2.38733,-0.1066 2.40989,-0.16385 0.50061,-1.27047 -2.79033,-1.61728 -12.26189,-3.74602 -16.75061,-3.76472 -5.65992,-0.0236 -4.49604,-1.69196 1.72232,-2.46889 4.6836,-0.58518 6.33531,-0.29644 11.45994,2.00336 3.51035,1.57535 7.2315,4.1895 8.99414,6.31849 8.47858,10.24081 11.0736,13.6988 11.0736,14.7561 0,1.50022 2.34453,2.37532 6.36386,2.37532 1.76016,0 5.66025,0.63811 8.66687,1.41801 6.23769,1.61804 7.79262,1.2521 3.08694,-0.72648 l -3.18495,-1.33918 4.4892,-1.02728 c 4.19258,-0.95939 4.64948,-0.8554 6.91483,1.57383 1.3341,1.4306 3.13608,3.9511 4.0044,5.6011 1.88358,-4.17532 -9.41992,-18.71875 -16.34115,-25.24485 -7.7202,-7.17514 -26.03904,-14.21944 -37,-14.22793 -17.7491,-0.0137 -43.28945,16.4419 -50.72424,32.68162 -3.58216,7.82448 -3.53282,16.54735 0.12405,21.92892 3.22681,4.74867 10.0274,9.36225 13.80032,9.36225 6.76075,0 11.6157,-5.56228 9.60327,-11.00239 l -0.92185,-2.49204 -1.77001,2.34656 c -1.4964,1.9838 -1.98965,2.13796 -3.19077,0.99721 -0.78143,-0.74214 -2.97852,-1.34934 -4.88243,-1.34934 -2.67246,0 -3.78896,-0.58315 -4.89733,-2.55785 -4.07423,-7.25873 5.71899,-21.30893 15.79462,-22.66035 2.9146,-0.39093 4.01806,-0.96008 3.66173,-1.88866 -2.31346,-6.02877 12.28448,7.87126 21.64149,20.60685 3.03069,4.12501 7.10862,9.01864 9.06206,10.87475 3.47526,3.30211 16.81825,11.31344 17.58853,10.56042 0.2142,-0.2094 -0.81568,-1.96073 -2.28861,-3.89186 z m -65.10083,1.14789 c -1.1,-0.65515 -3.9125,-3.11159 -6.25,-5.45875 -2.3375,-2.34716 -4.25,-3.87102 -4.25,-3.38636 0,1.87876 10.02461,10.30894 12,10.09137 0.275,-0.0303 -0.4,-0.5911 -1.5,-1.24626 z m 75.86971,-3.94119 c 0.33164,-1.2375 0.60913,-3.0926 0.61664,-4.12244 0.0113,-1.55137 -0.24357,-1.65898 -1.48635,-0.62756 -1.59935,1.32734 -2.09905,7 -0.61663,7 0.48585,0 1.15471,-1.0125 1.48634,-2.25 z m -55.85963,-7.76631 c 0.34546,-0.55897 1.01923,-0.7746 1.49725,-0.47916 1.67457,1.03494 -0.0136,-8.69704 -1.93161,-11.1354 -2.02971,-2.58036 -3.67175,-8.10644 -2.6981,-9.08009 0.31237,-0.31237 2.04269,0.53214 3.84516,1.87669 4.93575,3.68183 12.86339,8.08142 13.4696,7.47522 0.57889,-0.5789 -8.84002,-9.97929 -12.3174,-12.29318 -4.48224,-2.98254 -15.1553,1.96443 -19.45638,9.01805 -2.26391,3.71273 -2.51278,9.89617 -0.46664,11.59431 2.64996,2.19927 4.92079,0.71489 6.83583,-4.4684 1.01435,-2.74546 2.24043,-5.39511 2.72462,-5.88812 0.94604,-0.96327 2.96861,3.09919 5.05154,10.14639 1.25055,4.23099 2.2501,5.16891 3.44613,3.23369 z m -6.54188,-6.17468 c 0.0175,-0.93004 -0.37105,-1.93996 -0.86342,-2.24426 -1.11427,-0.68866 -2.10478,1.76229 -2.10478,5.20817 0,2.50904 0.0564,2.53472 1.4682,0.66821 0.8075,-1.06762 1.4825,-2.70207 1.5,-3.63212 z m 74.0318,-12.30902 c -0.68469,-0.825 -1.7258,-1.5 -2.31357,-1.5 -0.58778,0 -0.19518,0.66069 0.87244,1.4682 2.50847,1.89731 2.99833,1.90812 1.44113,0.0318 z m -62.4773,-37.78362 c -105.93106,164.18907 -52.96553,82.09454 0,0 z"
       inkscape:connector-curvature="0"
       sodipodi:nodetypes="sssscsccsccsscscscsssssssssscsssccsscssssssssccccscssscssscsssccccssssccssssscssscccccssssssssscssscsssscsssssssssssssscsscssssssssssssssssssssscscssssssssssscssscssscscssssscssccccscssscsscscccsssssscscsscssssccccsssccssssssssssscssscssssssssssssssssssssscssccccccssssscscsssscsssssssscsssssssssssssscssscsssssssssssssscsscsscssscsssscscscscsssssssssscsscsssccscsssccsscscssssssscsssssssscsscssssssssssscsssssccsscssssssssssccsssssssscsscscssssssssscssccsccsccc" />
  </g>
</svg>
